<svg width="512" height="512" viewBox="0 0 512 512" fill="none" xmlns="http://www.w3.org/2000/svg">
  <path 
    fill-rule="evenodd" 
    clip-rule="evenodd" 
    d="M256 512C397.385 512 512 397.385 512 256C512 114.615 397.385 0 256 0C114.615 0 0 114.615 0 256C0 397.385 114.615 512 256 512ZM154.5 160C135.446 160 120 175.446 120 194.5V336C120 355.054 135.446 370.5 154.5 370.5C173.554 370.5 189 355.054 189 336V265L231.574 308.426C245.064 322.185 266.936 322.185 280.426 308.426L323 265V336C323 355.054 338.446 370.5 357.5 370.5C376.554 370.5 392 355.054 392 336V194.5C392 175.446 376.554 160 357.5 160C348.163 160 339.227 163.708 332.626 170.308L256 246.934L179.374 170.308C172.773 163.708 163.837 160 154.5 160Z" 
    fill="#000000"
  />
</svg>